<svg width="739" height="641" viewBox="0 0 739 641" fill="none" xmlns="http://www.w3.org/2000/svg">
<path d="M256.061 2.05334C244.443 6.01624 233.295 15.6884 220.199 33.219C206.566 51.4885 194.343 72.579 172.114 116.372C159.085 142.097 155.526 148.68 150.623 156.807C148.474 160.434 145.184 165.942 143.303 169.099C140.415 174.069 135.714 181.256 121.074 203.018C119.328 205.57 115.97 209.399 113.619 211.414C111.269 213.429 107.374 216.922 104.956 219.205C99.7178 224.109 92.6662 230.691 90.6515 232.437C89.8456 233.109 88.3009 234.52 87.1593 235.46C86.0847 236.467 83.8014 238.348 82.1224 239.624C80.4435 240.9 78.966 242.109 78.7645 242.378C78.0258 243.251 61.1692 255.207 58.4828 256.685C51.9014 260.312 46.5287 262.999 41.4919 265.081C38.5369 266.357 35.1791 267.767 33.9702 268.238C32.8285 268.775 32.7614 268.674 31.4182 269.178C30.9985 269.43 29.4706 269.917 27.6574 270.857C25.7098 271.445 24.7202 271.841 24.4506 271.949C24.2827 272.016 22.9395 272.452 21.6803 273.208C14.9645 277.305 13.4199 278.917 10.6664 282.007C7.51001 285.5 2.47317 294.836 1.9359 298.194C1.73443 299.202 1.4658 300.344 1.19717 300.747C0.928534 301.15 0.659903 304.239 0.525587 307.665C0.324113 313.508 1.33148 320.561 2.87611 323.919C3.2119 324.658 4.08495 326.942 4.75653 328.957C8.85316 340.174 16.9121 353.473 24.098 360.861C30.478 367.444 42.4321 375.907 48.0062 377.855C53.1102 379.601 60.0275 380.743 65.7359 380.676C82.1896 380.608 95.6883 375.302 111.403 362.809C130.409 347.697 144.378 330.703 154.653 310.217C166.204 287.246 169.562 275.021 181.113 213.765C181.986 209.332 182.792 205.235 182.994 204.697C183.195 204.16 184.202 198.652 185.143 192.473C188.903 168.696 194.343 157.344 204.82 151.837C209.588 149.284 212.677 148.747 215.767 149.822C219.192 151.031 220.468 153.986 220.468 160.703C220.468 167.822 218.856 174.136 213.013 189.92C203.678 215.377 202.268 221.758 204.283 229.818C206.7 239.423 210.528 244.998 216.975 248.154C220.535 249.901 221.408 250.035 228.527 249.968C235.444 249.968 236.921 249.699 242.63 247.751C256.599 242.983 270.903 232.102 289.573 212.018C310.795 189.316 319.928 182.263 331.412 179.912C335.375 179.039 338.397 179.711 339.068 181.457C339.606 182.801 337.591 189.383 335.308 193.883C330.271 203.891 321.675 215.175 302.736 236.938C296.155 244.527 288.297 253.729 285.342 257.424C271.709 274.551 263.785 290.537 260.292 307.933C258.681 316.262 258.681 333.323 260.292 341.047C265.061 363.279 278.223 379.937 299.042 390.213C306.9 394.042 314.086 395.654 323.219 395.654C351.627 395.587 375.267 376.78 392.996 340.039C398.1 329.561 403.607 315.859 412.271 292.149C434.366 231.967 442.76 215.78 462.236 195.697C478.22 179.241 493.464 171.449 505.419 173.666C517.708 175.95 521.872 183.002 520.126 198.854C518.044 217.661 510.052 238.415 497.628 257.021C489.234 269.447 479.496 281.201 449.409 314.852C393.265 377.586 373.722 402.169 358.208 429.506C343.434 455.634 333.83 486.8 331.211 517.025C328.726 546.31 336.382 573.446 351.828 590.171C367.275 606.962 391.989 615.493 418.046 613.142C456.796 609.582 482.249 590.641 492.659 557.662C495.479 548.594 496.957 540.4 499.844 517.697C505.687 471.284 509.784 451.134 516.97 433.268C524.29 415.133 537.856 400.759 552.698 395.318C557.869 393.437 566.331 393.303 569.689 395.049C574.927 397.803 577.748 402.639 577.748 408.819C577.68 417.416 571.838 429.775 559.951 446.5C544.034 468.866 541.348 477.665 546.922 488.211C549.474 492.979 553.235 496.136 558.809 498.286C561.965 499.428 563.712 499.629 569.151 499.428C575.263 499.226 575.934 499.025 581.911 496.002C589.567 492.173 594.873 487.875 609.849 473.635C623.616 460.538 631.81 453.619 639.398 448.649C646.114 444.283 654.576 440.253 660.083 438.843C668.411 436.693 677.141 437.969 680.835 441.798C682.447 443.544 682.85 444.485 683.051 448.112C684.059 463.493 670.157 487.606 633.22 534.825C612.737 561.02 605.887 574.856 605.887 590.238C605.887 598.029 607.096 602.865 610.856 610.388C617.236 623.15 630.467 632.956 647.525 637.524C670.425 643.636 692.05 640.21 704.945 628.389C712.466 621.538 716.63 614.284 721.868 598.835C729.323 576.67 735.166 547.318 737.651 519.376C738.927 505.473 738.725 474.24 737.315 459.597C734.225 427.894 725.898 396.93 714.078 373.153C705.012 355.085 694.065 345.01 680.633 342.39C671.03 340.442 661.158 342.323 642.219 349.577C628.385 354.883 615.625 359.048 611.528 359.585C603.872 360.593 598.835 358.242 595.813 352.331C591.313 343.532 594.47 333.793 610.521 306.993C620.124 291.007 622.542 286.306 625.363 278.38C631.272 261.454 629.056 248.155 619.385 242.714C616.095 240.833 615.087 240.632 610.319 240.632C605.551 240.632 604.409 240.9 599.708 243.117C592.992 246.341 588.359 249.968 580.434 258.162C562.234 276.969 549.743 298.53 517.641 366.57C497.561 409.222 487.957 426.014 474.324 442.805C468.347 450.127 458.811 458.858 454.446 461.008C450.954 462.687 450.483 462.754 448.872 461.881C444.171 459.261 443.23 450.194 446.454 437.365C451.424 417.282 466.198 387.191 500.852 326.606C510.321 309.948 521.335 289.865 525.297 281.94C548.198 235.997 557.13 196.771 550.549 171.449C547.997 161.643 541.617 151.904 533.289 144.918C525.566 138.47 518.649 134.91 508.038 132.022C503.538 130.746 500.986 130.544 489.099 130.544C473.787 130.544 468.079 131.418 454.177 135.851C442.76 139.612 428.254 149.553 413.076 164.262C394.474 182.263 385.407 196.637 380.169 216.116C379.095 220.146 378.692 224.646 378.222 238.147C377.348 263.469 375.401 272.939 369.222 282.074C362.171 292.283 352.03 296.985 344.374 293.425C340.815 291.746 334.367 285.029 332.688 281.201C330.808 276.902 330.271 271.596 331.278 265.752C332.353 259.17 336.785 245.333 340.009 238.55C341.486 235.527 342.829 232.236 343.098 231.228C343.367 230.221 345.18 226.594 347.195 223.235C359.014 203.488 368.148 180.114 372.916 157.21C374.125 151.769 375.67 144.381 376.475 140.888C377.684 135.381 379.984 130.108 380.052 116.54C379.627 110.296 379.09 107.498 377.953 102.939L376.072 99.1102C371.976 90.8486 362.439 86.5499 347.933 86.4827C330.204 86.4827 314.69 92.9979 288.633 111.469C275.806 120.604 271.44 123.223 266.135 124.835C260.561 126.582 257.807 126.111 256.061 123.223C252.435 117.313 255.591 107.17 268.217 83.9976C281.178 60.3546 284.805 49.7422 285.409 34.3609C286.148 16.5615 282.253 6.28491 273.187 2.12054C268.687 -0.0288086 262.106 -0.0288696 256.061 2.05334Z" fill="black"/>
</svg>
